# xmcd CD database file
# Copyright (C) 1996 Ti Kan
#
# Track frame offsets:
#  183
#  13153
#  26468
#  40230
#  53670
#  64610
#  75853
#  89045
#  100550
#  112985
#  124348
#  135708
#  143403
#  155930
#  168253
#  178488
#  192868
#
# Disc length: 2738 seconds
#
# Revision: 2
# Processed by: cddbd v1.4b41PL1 Copyright (c) Steve Scherf et al.
# Submitted via: CDWizzard Release:4.12
#
DISCID=de0ab011
DTITLE=Elmore James - Standing At The Crossroads
DYEAR=1900
DGENRE=
TTITLE0=Anna Lee
TTITLE1=Stranger Blues
TTITLE2=My Bleeding Heart
TTITLE3=Standing At The Crossroads
TTITLE4=One Way Out
TTITLE5=Person To Person
TTITLE6=My Kind Of Woman
TTITLE7=So Unkind
TTITLE8=Got To Move
TTITLE9=Look On Yonder Wall
TTITLE10=Shake Your Moneymaker
TTITLE11=Mean Mistreatin' Mama (Take 1)
TTITLE12=Mean Mistreatin' Mama (Take 2)
TTITLE13=Mean Mistreatin' Mama (Take 3)
TTITLE14=Sunnyland Train
TTITLE15=My Baby's Gone
TTITLE16=Find My Kinda Woman
EXTD=
EXTT0=
EXTT1=
EXTT2=
EXTT3=
EXTT4=
EXTT5=
EXTT6=
EXTT7=
EXTT8=
EXTT9=
EXTT10=
EXTT11=
EXTT12=
EXTT13=
EXTT14=
EXTT15=
EXTT16=
PLAYORDER=
